<!DOCTYPE svg PUBLIC "-//W3C//DTD SVG 1.1//EN" "http://www.w3.org/Graphics/SVG/1.1/DTD/svg11.dtd">
<!-- Uploaded to: SVG Repo, www.svgrepo.com, Transformed by: SVG Repo Mixer Tools -->
<svg version="1.1" id="Icons" xmlns="http://www.w3.org/2000/svg" xmlns:xlink="http://www.w3.org/1999/xlink" viewBox="0 0 32 32" xml:space="preserve" width="800px" height="800px" fill="#ffffff" stroke="#ffffff">
<g id="SVGRepo_bgCarrier" stroke-width="0"/>
<g id="SVGRepo_tracerCarrier" stroke-linecap="round" stroke-linejoin="round"/>
<g id="SVGRepo_iconCarrier"> <style type="text/css"> .st0{fill:none;stroke:#000000;stroke-width:2;stroke-linecap:round;stroke-linejoin:round;stroke-miterlimit:10;} .st1{fill:none;stroke:#000000;stroke-width:2;stroke-linecap:round;stroke-linejoin:round;} .st2{fill:none;stroke:#000000;stroke-width:2;stroke-linecap:round;stroke-linejoin:round;stroke-dasharray:5.2066,0;} </style> <ellipse class="st0" cx="16" cy="17.5" rx="10" ry="10.5"/> <path class="st0" d="M11,8.4C11.3,5.9,13.4,4,16,4c2.6,0,4.7,1.9,5,4.4"/> <line class="st0" x1="2" y1="17" x2="6" y2="17"/> <line class="st0" x1="26" y1="17" x2="30" y2="17"/> <line class="st0" x1="5" y1="8" x2="8.1" y2="11"/> <line class="st0" x1="27.1" y1="8" x2="24" y2="11"/> <path class="st0" d="M16,7v7.1c0,4.6-2.4,8.9-6.3,11.5"/> <path class="st0" d="M16,7v7.1c0,4.6,2.4,8.9,6.3,11.5"/> <line class="st0" x1="5" y1="26" x2="7.7" y2="23.4"/> <line class="st0" x1="27.1" y1="26" x2="24.3" y2="23.3"/> </g>
</svg>